<svg xmlns="http://www.w3.org/2000/svg" width="100" height="100" viewBox="0 0 100 100">
  <path d="M23.008,52.703c0,0-5.608-1.025-5.416-4.877c0.223-6.198,12.604-4.938,12.604-4.938v-0.75c0-0.163,0.033-0.306,0.099-0.419
    c0.132-0.198,0.361-0.32,0.616-0.32c0.072,0,0.145,0.01,0.217,0.032c0.331,0.095,0.553,0.407,0.553,0.753v9.721
    c0,0.297-0.135,0.579-0.369,0.764C29.199,54.754,23.008,52.703,23.008,52.703z M35.155,56.322c0,0-2.685-0.52-2.559-2.482
    c0.15-2.553,3.379-2.178,3.379-2.178v-0.438c0-0.091,0.016-0.17,0.049-0.23c0.065-0.117,0.177-0.188,0.313-0.188
    c0.036,0,0.072,0.005,0.108,0.014c0.165,0.043,0.281,0.182,0.281,0.352v4.537c0,0.139-0.062,0.271-0.169,0.361
    C37.615,57.141,35.155,56.322,35.155,56.322z M45.274,51.082c0,0-5.607-1.025-5.415-4.877c0.222-6.198,12.604-4.938,12.604-4.938
    v-0.75c0-0.163,0.033-0.306,0.1-0.419c0.131-0.198,0.36-0.32,0.615-0.32c0.072,0,0.145,0.01,0.217,0.032
    c0.33,0.095,0.552,0.407,0.552,0.753v9.721c0,0.297-0.135,0.579-0.369,0.764C51.465,53.133,45.274,51.082,45.274,51.082z
     M57.421,54.701c0,0-2.685-0.52-2.559-2.482c0.15-2.553,3.379-2.178,3.379-2.178v-0.438c0-0.091,0.016-0.17,0.049-0.23
    c0.064-0.117,0.177-0.188,0.313-0.188c0.036,0,0.072,0.005,0.108,0.014c0.165,0.043,0.281,0.182,0.281,0.352v4.537
    c0,0.139-0.062,0.271-0.169,0.361C59.881,55.52,57.421,54.701,57.421,54.701z M70.635,35.225v26.55
    c0,0.537-0.439,0.975-0.976,0.975H40.77c-0.538,0-0.976-0.438-0.976-0.975V35.225c0-0.537,0.438-0.976,0.976-0.976h28.889
    C70.197,34.25,70.635,34.688,70.635,35.225z" fill="green"/>
</svg>
